<mxfile host="app.diagrams.net" modified="2021-11-04T07:02:29.027Z" agent="5.0 (Macintosh; Intel Mac OS X 10_13_6) AppleWebKit/537.36 (KHTML, like Gecko) Chrome/95.0.4638.54 Safari/537.36" etag="isX4h87LQVdXzG5p5oM1" version="15.5.7" type="github">
  <diagram id="pMExFTYcLv69h8y6yZpA" name="Page-1">
    <mxGraphModel dx="796" dy="433" grid="1" gridSize="10" guides="1" tooltips="1" connect="1" arrows="1" fold="1" page="1" pageScale="1" pageWidth="827" pageHeight="1169" math="0" shadow="0">
      <root>
        <mxCell id="0" />
        <mxCell id="1" parent="0" />
        <mxCell id="C1AYodGgT36gvcmngFwS-10" value="" style="rounded=0;whiteSpace=wrap;html=1;" vertex="1" parent="1">
          <mxGeometry x="70" y="270" width="450" height="180" as="geometry" />
        </mxCell>
        <mxCell id="C1AYodGgT36gvcmngFwS-11" value="" style="edgeStyle=orthogonalEdgeStyle;rounded=0;orthogonalLoop=1;jettySize=auto;html=1;" edge="1" parent="1" source="A8WVg59LF9ZsiPGN_pzD-1" target="A8WVg59LF9ZsiPGN_pzD-3">
          <mxGeometry relative="1" as="geometry" />
        </mxCell>
        <mxCell id="A8WVg59LF9ZsiPGN_pzD-1" value="开始" style="strokeWidth=2;html=1;shape=mxgraph.flowchart.terminator;whiteSpace=wrap;" parent="1" vertex="1">
          <mxGeometry x="256" y="170" width="100" height="60" as="geometry" />
        </mxCell>
        <mxCell id="A8WVg59LF9ZsiPGN_pzD-2" value="媒体数据(作者,专题) 舆情表" style="shape=tape;whiteSpace=wrap;html=1;strokeWidth=2;size=0.19" parent="1" vertex="1">
          <mxGeometry x="116" y="280" width="100" height="65" as="geometry" />
        </mxCell>
        <mxCell id="A8WVg59LF9ZsiPGN_pzD-3" value="首页巡查-首页快照表" style="shape=tape;whiteSpace=wrap;html=1;strokeWidth=2;size=0.19" parent="1" vertex="1">
          <mxGeometry x="256" y="280" width="100" height="65" as="geometry" />
        </mxCell>
        <mxCell id="C1AYodGgT36gvcmngFwS-1" value="热榜(热门文章)-热榜表" style="shape=tape;whiteSpace=wrap;html=1;strokeWidth=2;size=0.19" vertex="1" parent="1">
          <mxGeometry x="396" y="280" width="100" height="65" as="geometry" />
        </mxCell>
        <mxCell id="C1AYodGgT36gvcmngFwS-2" value="内容风险(重大事件, 算法打标)-重大舆情表" style="shape=tape;whiteSpace=wrap;html=1;strokeWidth=2;size=0.19" vertex="1" parent="1">
          <mxGeometry x="396" y="370" width="100" height="65" as="geometry" />
        </mxCell>
        <mxCell id="C1AYodGgT36gvcmngFwS-3" value="多级关键词-舆情表" style="shape=tape;whiteSpace=wrap;html=1;strokeWidth=2;size=0.19" vertex="1" parent="1">
          <mxGeometry x="116" y="370" width="100" height="65" as="geometry" />
        </mxCell>
        <mxCell id="C1AYodGgT36gvcmngFwS-8" value="" style="edgeStyle=orthogonalEdgeStyle;rounded=0;orthogonalLoop=1;jettySize=auto;html=1;" edge="1" parent="1" target="C1AYodGgT36gvcmngFwS-5">
          <mxGeometry relative="1" as="geometry">
            <mxPoint x="306" y="450" as="sourcePoint" />
          </mxGeometry>
        </mxCell>
        <mxCell id="C1AYodGgT36gvcmngFwS-4" value="热度追踪(转赞评增加量)-增量表" style="shape=tape;whiteSpace=wrap;html=1;strokeWidth=2;size=0.19" vertex="1" parent="1">
          <mxGeometry x="256" y="370" width="100" height="65" as="geometry" />
        </mxCell>
        <mxCell id="C1AYodGgT36gvcmngFwS-9" value="" style="edgeStyle=orthogonalEdgeStyle;rounded=0;orthogonalLoop=1;jettySize=auto;html=1;" edge="1" parent="1" source="C1AYodGgT36gvcmngFwS-5" target="C1AYodGgT36gvcmngFwS-6">
          <mxGeometry relative="1" as="geometry" />
        </mxCell>
        <mxCell id="C1AYodGgT36gvcmngFwS-5" value="数据筛选(udf?)" style="rounded=1;whiteSpace=wrap;html=1;absoluteArcSize=1;arcSize=14;strokeWidth=2;" vertex="1" parent="1">
          <mxGeometry x="191" y="510" width="230" height="60" as="geometry" />
        </mxCell>
        <mxCell id="C1AYodGgT36gvcmngFwS-6" value="结果表" style="rounded=1;whiteSpace=wrap;html=1;absoluteArcSize=1;arcSize=14;strokeWidth=2;" vertex="1" parent="1">
          <mxGeometry x="191" y="630" width="230" height="60" as="geometry" />
        </mxCell>
      </root>
    </mxGraphModel>
  </diagram>
</mxfile>
